<svg version="1.1" viewBox="0.0 0.0 1152.0 864.0" fill="none" stroke="none" stroke-linecap="square" stroke-miterlimit="10" xmlns:xlink="http://www.w3.org/1999/xlink" xmlns="http://www.w3.org/2000/svg"><clipPath id="p.0"><path d="m0 0l1152.0 0l0 864.0l-1152.0 0l0 -864.0z" clip-rule="nonzero"/></clipPath><g clip-path="url(#p.0)"><path fill="#000000" fill-opacity="0.0" d="m0 0l1152.0 0l0 864.0l-1152.0 0z" fill-rule="evenodd"/><path fill="#000000" fill-opacity="0.0" d="m82.62359 163.21326c14.471504 -18.417664 31.098434 -40.286354 54.06562 -44.884514c47.719193 -9.553665 110.19928 22.671227 129.54855 67.32546c16.786316 38.739456 13.354004 96.47873 -17.341202 125.46719c-19.925919 18.817963 -53.636536 21.315063 -80.58531 16.322815c-13.643036 -2.5273438 -29.277008 -11.31955 -33.664032 -24.48294c-8.117462 -24.356537 -0.25764465 -55.06404 15.301834 -75.48555c17.53447 -23.013641 51.19629 -29.008652 79.566925 -34.68242c25.01506 -5.0026855 55.48143 -12.409088 76.50395 2.0419922c50.227325 34.526764 41.88669 119.0076 34.682404 179.53018c-7.2478943 60.8891 -16.118134 156.63715 -76.50394 167.29395c-22.405273 3.9541016 -56.2778 8.666138 -67.325455 -11.2230835c-15.443512 -27.80307 5.7032776 -63.381256 10.199463 -94.86612c9.9214325 -69.475586 24.48294 -138.93246 24.48294 -209.11287c0 -24.85965 -0.5618744 -49.85794 -4.08136 -74.46719c-1.4616241 -10.220047 -1.8817596 -22.279007 -9.181107 -29.580055c-12.260651 -12.263519 -36.17711 -7.0431366 -52.02362 0c-52.51098 23.339058 -106.93767 118.49804 -66.30446 159.13126c31.41957 31.419556 80.06654 38.74759 121.38846 55.083984c40.834885 16.14386 76.69118 42.9682 113.22835 67.322815c38.445465 25.626648 84.16617 56.829956 93.84775 102.00787c8.494202 39.637115 -3.5675964 95.155975 -38.763763 115.26773c-75.44937 43.11316 -178.87012 48.1651 -260.1181 17.341187c-24.180122 -9.173462 -51.10475 -24.747437 -60.183723 -48.963257c-8.687641 -23.171997 2.4249725 -51.947388 16.320213 -72.42517c63.451263 -93.50983 158.79149 -160.83087 238.69815 -240.73755" fill-rule="evenodd"/><path stroke="#000000" stroke-width="1.0" stroke-linejoin="round" stroke-linecap="butt" d="m82.62359 163.21326c14.471504 -18.417664 31.098434 -40.286354 54.06562 -44.884514c47.719193 -9.553665 110.19928 22.671227 129.54855 67.32546c16.786316 38.739456 13.354004 96.47873 -17.341202 125.46719c-19.925919 18.817963 -53.636536 21.315063 -80.58531 16.322815c-13.643036 -2.5273438 -29.277008 -11.31955 -33.664032 -24.48294c-8.117462 -24.356537 -0.25764465 -55.06404 15.301834 -75.48555c17.53447 -23.013641 51.19629 -29.008652 79.566925 -34.68242c25.01506 -5.0026855 55.48143 -12.409088 76.50395 2.0419922c50.227325 34.526764 41.88669 119.0076 34.682404 179.53018c-7.2478943 60.8891 -16.118134 156.63715 -76.50394 167.29395c-22.405273 3.9541016 -56.2778 8.666138 -67.325455 -11.2230835c-15.443512 -27.80307 5.7032776 -63.381256 10.199463 -94.86612c9.9214325 -69.475586 24.48294 -138.93246 24.48294 -209.11287c0 -24.85965 -0.5618744 -49.85794 -4.08136 -74.46719c-1.4616241 -10.220047 -1.8817596 -22.279007 -9.181107 -29.580055c-12.260651 -12.263519 -36.17711 -7.0431366 -52.02362 0c-52.51098 23.339058 -106.93767 118.49804 -66.30446 159.13126c31.41957 31.419556 80.06654 38.74759 121.38846 55.083984c40.834885 16.14386 76.69118 42.9682 113.22835 67.322815c38.445465 25.626648 84.16617 56.829956 93.84775 102.00787c8.494202 39.637115 -3.5675964 95.155975 -38.763763 115.26773c-75.44937 43.11316 -178.87012 48.1651 -260.1181 17.341187c-24.180122 -9.173462 -51.10475 -24.747437 -60.183723 -48.963257c-8.687641 -23.171997 2.4249725 -51.947388 16.320213 -72.42517c63.451263 -93.50983 158.79149 -160.83087 238.69815 -240.73755" fill-rule="evenodd"/><path fill="#000000" fill-opacity="0.0" d="m462.09186 358.04462c33.328888 0 66.63696 -2.0393677 99.96588 -2.0393677" fill-rule="evenodd"/><path stroke="#000000" stroke-width="1.0" stroke-linejoin="round" stroke-linecap="butt" d="m462.09186 358.04462c33.328888 0 66.63696 -2.0393677 99.96588 -2.0393677" fill-rule="evenodd"/><path fill="#000000" fill-opacity="0.0" d="m557.979 309.08136c10.606567 15.157288 23.463928 28.82254 32.643066 44.88452c2.7251587 4.7686157 7.856262 10.089111 6.118103 15.299225c-4.631897 13.883728 -24.645935 15.902252 -37.740173 22.440918" fill-rule="evenodd"/><path stroke="#000000" stroke-width="1.0" stroke-linejoin="round" stroke-linecap="butt" d="m557.979 309.08136c10.606567 15.157288 23.463928 28.82254 32.643066 44.88452c2.7251587 4.7686157 7.856262 10.089111 6.118103 15.299225c-4.631897 13.883728 -24.645935 15.902252 -37.740173 22.440918" fill-rule="evenodd"/><path fill="#cfe2f3" d="m747.7113 86.70628l0 0c0 -6.7609177 5.480774 -12.2417145 12.241699 -12.2417145l237.68982 0c3.246704 0 6.3604126 1.2897491 8.656189 3.5855103c2.2957764 2.2957687 3.5855103 5.4095 3.5855103 8.656204l0 48.965393c0 6.76091 -5.480835 12.2417145 -12.241699 12.2417145l-237.68982 0c-6.7609253 0 -12.241699 -5.4808044 -12.241699 -12.2417145z" fill-rule="evenodd"/><path stroke="#000000" stroke-width="1.0" stroke-linejoin="round" stroke-linecap="butt" d="m747.7113 86.70628l0 0c0 -6.7609177 5.480774 -12.2417145 12.241699 -12.2417145l237.68982 0c3.246704 0 6.3604126 1.2897491 8.656189 3.5855103c2.2957764 2.2957687 3.5855103 5.4095 3.5855103 8.656204l0 48.965393c0 6.76091 -5.480835 12.2417145 -12.241699 12.2417145l-237.68982 0c-6.7609253 0 -12.241699 -5.4808044 -12.241699 -12.2417145z" fill-rule="evenodd"/><path fill="#cfe2f3" d="m659.9869 283.57764l0 0c0 -5.6331177 4.5665283 -10.1996765 10.199707 -10.1996765l119.34863 0c2.7051392 0 5.2994385 1.074585 7.2122803 2.9873962c1.9127808 1.9128113 2.9874268 4.507141 2.9874268 7.2122803l0 40.797485c0 5.6331177 -4.5665894 10.1996765 -10.199707 10.1996765l-119.34863 0c-5.6331787 0 -10.199707 -4.566559 -10.199707 -10.1996765z" fill-rule="evenodd"/><path stroke="#000000" stroke-width="1.0" stroke-linejoin="round" stroke-linecap="butt" d="m659.9869 283.57764l0 0c0 -5.6331177 4.5665283 -10.1996765 10.199707 -10.1996765l119.34863 0c2.7051392 0 5.2994385 1.074585 7.2122803 2.9873962c1.9127808 1.9128113 2.9874268 4.507141 2.9874268 7.2122803l0 40.797485c0 5.6331177 -4.5665894 10.1996765 -10.199707 10.1996765l-119.34863 0c-5.6331787 0 -10.199707 -4.566559 -10.199707 -10.1996765z" fill-rule="evenodd"/><path fill="#cfe2f3" d="m954.46454 283.57764l0 0c0 -5.6331177 4.5665894 -10.1996765 10.199707 -10.1996765l119.348694 0c2.7050781 0 5.2994385 1.074585 7.2122803 2.9873962c1.9127197 1.9128113 2.9874268 4.507141 2.9874268 7.2122803l0 40.797485c0 5.6331177 -4.5666504 10.1996765 -10.199707 10.1996765l-119.348694 0c-5.6331177 0 -10.199707 -4.566559 -10.199707 -10.1996765z" fill-rule="evenodd"/><path stroke="#000000" stroke-width="1.0" stroke-linejoin="round" stroke-linecap="butt" d="m954.46454 283.57764l0 0c0 -5.6331177 4.5665894 -10.1996765 10.199707 -10.1996765l119.348694 0c2.7050781 0 5.2994385 1.074585 7.2122803 2.9873962c1.9127197 1.9128113 2.9874268 4.507141 2.9874268 7.2122803l0 40.797485c0 5.6331177 -4.5666504 10.1996765 -10.199707 10.1996765l-119.348694 0c-5.6331177 0 -10.199707 -4.566559 -10.199707 -10.1996765z" fill-rule="evenodd"/><path fill="#000000" fill-opacity="0.0" d="m878.7979 147.91339l-148.94489 125.480316" fill-rule="evenodd"/><path stroke="#000000" stroke-width="1.0" stroke-linejoin="round" stroke-linecap="butt" d="m878.7979 147.91339l-144.3562 121.61453" fill-rule="evenodd"/><path fill="#000000" stroke="#000000" stroke-width="1.0" stroke-linecap="butt" d="m733.3775 268.2647l-2.406433 4.1871033l4.53479 -1.660675z" fill-rule="evenodd"/><path fill="#000000" fill-opacity="0.0" d="m878.7979 147.91339l145.54327 125.480316" fill-rule="evenodd"/><path stroke="#000000" stroke-width="1.0" stroke-linejoin="round" stroke-linecap="butt" d="m878.7979 147.91339l140.99902 121.56244" fill-rule="evenodd"/><path fill="#000000" stroke="#000000" stroke-width="1.0" stroke-linecap="butt" d="m1018.7184 270.72684l4.515625 1.7122803l-2.3585205 -4.214264z" fill-rule="evenodd"/><path fill="#cfe2f3" d="m761.9921 427.4097l0 0c0 -6.7609253 5.480774 -12.24173 12.241699 -12.24173l196.87091 0c3.246704 0 6.3604126 1.2897644 8.656189 3.5855103c2.2957764 2.2957764 3.5855103 5.4095154 3.5855103 8.6562195l0 48.965393c0 6.760895 -5.480774 12.241699 -12.241699 12.241699l-196.87091 0c-6.7609253 0 -12.241699 -5.4808044 -12.241699 -12.241699z" fill-rule="evenodd"/><path stroke="#000000" stroke-width="1.0" stroke-linejoin="round" stroke-linecap="butt" d="m761.9921 427.4097l0 0c0 -6.7609253 5.480774 -12.24173 12.241699 -12.24173l196.87091 0c3.246704 0 6.3604126 1.2897644 8.656189 3.5855103c2.2957764 2.2957764 3.5855103 5.4095154 3.5855103 8.6562195l0 48.965393c0 6.760895 -5.480774 12.241699 -12.241699 12.241699l-196.87091 0c-6.7609253 0 -12.241699 -5.4808044 -12.241699 -12.241699z" fill-rule="evenodd"/><path fill="#000000" fill-opacity="0.0" d="m729.8609 334.5748l142.80316 80.59842" fill-rule="evenodd"/><path stroke="#000000" stroke-width="1.0" stroke-linejoin="round" stroke-linecap="butt" d="m729.8609 334.5748l137.57794 77.64932" fill-rule="evenodd"/><path fill="#000000" stroke="#000000" stroke-width="1.0" stroke-linecap="butt" d="m866.62695 413.66257l4.763977 0.79211426l-3.1402588 -3.6690063z" fill-rule="evenodd"/><path fill="#000000" fill-opacity="0.0" d="m1024.3386 334.5748l-151.65356 80.59842" fill-rule="evenodd"/><path stroke="#000000" stroke-width="1.0" stroke-linejoin="round" stroke-linecap="butt" d="m1024.3386 334.5748l-146.35535 77.78259" fill-rule="evenodd"/><path fill="#000000" stroke="#000000" stroke-width="1.0" stroke-linecap="butt" d="m877.2081 410.89886l-3.2321777 3.5882874l4.7824707 -0.6712036z" fill-rule="evenodd"/><path fill="#000000" fill-opacity="0.0" d="m872.6693 488.6168c0 12.500885 -61.731567 54.58383 -123.682434 25.00174c-61.950867 -29.582062 -124.12109 -130.82913 -123.682434 -232.07675c0.4387207 -101.24759 63.48633 -202.4957 126.753296 -232.07674c63.266968 -29.581034 126.753296 12.505009 126.753296 25.010021" fill-rule="evenodd"/><path stroke="#000000" stroke-width="1.0" stroke-linejoin="round" stroke-linecap="butt" d="m872.6693 488.6168c0 12.500885 -61.731567 54.58383 -123.682434 25.00174c-61.950867 -29.582062 -124.12109 -130.82913 -123.682434 -232.07675c0.4387207 -101.24759 63.48633 -202.4957 126.753296 -232.07674c63.266968 -29.581034 126.753296 12.505009 126.753296 25.010021" fill-rule="evenodd"/></g></svg>